<svg width="540" height="485" xmlns="http://www.w3.org/2000/svg" xmlns:xlink="http://www.w3.org/1999/xlink">
 <defs>
  <filter id="c" width="126.9%" height="129.8%" x="-13.5%" y="-10.6%" filterUnits="objectBoundingBox"/>
  <filter id="e" width="126.9%" height="129.8%" x="-13.5%" y="-10.6%" filterUnits="objectBoundingBox"/>
  <filter id="i" width="126.9%" height="129.8%" x="-13.5%" y="-10.6%" filterUnits="objectBoundingBox"/>
  <rect id="d" width="260" height="235" x="0" y="0" rx="4"/>
  <rect id="f" width="260" height="235" x="0" y="0" rx="4"/>
  <rect id="j" width="260" height="235" x="0" y="0" rx="4"/>
  <ellipse id="a" cx="81.039" cy="81.034" rx="81.039" ry="81.034"/>
  <ellipse id="b" cx="81.039" cy="81.034" rx="81.039" ry="81.034"/>
  <mask id="g" width="162.078" height="162.069" x="0" y="0" fill="#fff" maskContentUnits="userSpaceOnUse" maskUnits="objectBoundingBox">
   <use xlink:href="#a" id="svg_1"/>
  </mask>
  <mask id="h" width="162.078" height="162.069" x="0" y="0" fill="#fff" maskContentUnits="userSpaceOnUse" maskUnits="objectBoundingBox">
   <use xlink:href="#b" id="svg_2"/>
  </mask>
 </defs>
 <g>
  <title>Layer 1</title>
  <g fill="none" fill-rule="evenodd" id="svg_3">
   <use fill="#000" filter="url(#c)" xlink:href="#d" y="1" x="1" id="svg_4"/>
   <use fill="#FFF" xlink:href="#d" y="1" x="1" id="svg_5"/>
   <path fill="#FAFAFA" stroke="#E5E9EA" d="m17.208,17.207l230.286,0l0,202.586l-230.286,0l0,-202.586z" id="svg_6"/>
   <path fill="#E5E9EA" d="m17.208,118.5l230.286,0l0,1l-230.286,0l0,-1zm0,18.993l230.286,0l0,1l-230.286,0l0,-1zm0,18.992l230.286,0l0,1l-230.286,0l0,-1zm0,18.992l230.286,0l0,1l-230.286,0l0,-1zm0,-132.947l230.286,0l0,1l-230.286,0l0,-1zm0,-18.992l230.286,0l0,1l-230.286,0l0,-1zm0,37.985l230.286,0l0,1l-230.286,0l0,-1zm0,18.992l230.286,0l0,1l-230.286,0l0,-1zm0,18.993l230.286,0l0,1l-230.286,0l0,-1zm0,94.962l230.286,0l0,1l-230.286,0l0,-1zm0,18.992l230.286,0l0,1l-230.286,0l0,-1z" id="svg_7"/>
   <path fill="#242D52" d="m23.286,118.5l31.065,0l0,45.647a5,5 0 0 1 -5,5l-21.065,0a5,5 0 0 1 -5,-5l0,-45.647z" id="svg_8"/>
   <path fill="#F3603C" d="m23.286,118.5l31.065,0l0,32.985a5,5 0 0 1 -5,5l-21.065,0a5,5 0 0 1 -5,-5l0,-32.985zm47.272,-0.266l31.065,0l0,-34.576a5,5 0 0 0 -5,-5l-21.065,0a5,5 0 0 0 -5,5l0,34.576z" id="svg_9"/>
   <path fill="#242D52" d="m70.558,118.234l31.065,0l0,51.99a5,5 0 0 1 -5,5l-21.065,0a5,5 0 0 1 -5,-5l0,-51.99zm92.52,0.266l31.065,0l0,-71.307a5,5 0 0 0 -5,-5l-21.065,0a5,5 0 0 0 -5,5l0,71.307z" id="svg_10"/>
   <path fill="#F3603C" d="m163.078,118.5l31.065,0l0,-52.23a5,5 0 0 0 -5,-5l-21.065,0a5,5 0 0 0 -5,5l0,52.23z" id="svg_11"/>
   <g id="svg_12">
    <path fill="#242D52" d="m210.351,118.5l31.065,0l0,58.477a5,5 0 0 1 -5,5l-21.066,0a5,5 0 0 1 -5,-5l0,-58.477l0.001,0z" id="svg_13"/>
    <path fill="#F3603C" d="m210.351,118.5l31.065,0l0,45.782a5,5 0 0 1 -5,5l-21.066,0a5,5 0 0 1 -5,-5l0,-45.782l0.001,0z" id="svg_14"/>
   </g>
   <g id="svg_15">
    <path fill="#F3603C" d="m116.481,118.5l31.065,0l0,90.216a5,5 0 0 1 -5,5l-21.066,0a5,5 0 0 1 -5,-5l0,-90.216l0.001,0z" id="svg_16"/>
    <path fill="#242D52" d="m116.481,118.5l31.065,0l0,33.086a5,5 0 0 1 -5,5l-21.066,0a5,5 0 0 1 -5,-5l0,-33.086l0.001,0z" id="svg_17"/>
   </g>
   <g id="svg_18">
    <use fill="#000" filter="url(#e)" xlink:href="#f" y="1" x="281" id="svg_19"/>
    <use fill="#FFF" xlink:href="#f" y="1" x="281" id="svg_20"/>
    <g id="svg_21">
     <ellipse cx="411.338" cy="118.5" stroke="#FFF" stroke-width="40" rx="61.039" ry="61.034" id="svg_22"/>
     <use stroke="#F3603C" stroke-dasharray="502" stroke-width="80" mask="url(#g)" xlink:href="#a" y="37.466" x="330.299" id="svg_23"/>
     <use stroke="#242D52" stroke-dasharray="340" stroke-width="80" mask="url(#h)" xlink:href="#b" y="37.466" x="330.299" id="svg_24"/>
    </g>
   </g>
   <g id="svg_25">
    <use fill="#000" filter="url(#i)" xlink:href="#j" y="251" x="141" id="svg_26"/>
    <use fill="#FFF" xlink:href="#j" y="251" x="141" id="svg_27"/>
    <g id="svg_28">
     <rect width="106.026" height="78.333" fill="#F3603C" rx="4" y="391.46001" x="157.208" id="svg_29"/>
     <path fill="#FFF" fill-rule="nonzero" d="m180.252,450.87301l0,-3.907l3.897,0l0,-1.78l-3.897,0l0,-3.908l-1.781,0l0,3.907l-3.908,0l0,1.78l3.908,0l0,3.908l1.78,0l0.001,0zm12.264,2.038l0,-14.106l-2.158,0l-3.433,2.997l0,2.374l3.314,-2.977l0,11.711l2.276,0l0.001,0.001zm6.437,0.198c0.382,0 0.71,-0.135 0.984,-0.406c0.274,-0.27 0.41,-0.597 0.41,-0.98c0,-0.382 -0.136,-0.71 -0.41,-0.983a1.343,1.343 0 0 0 -0.984,-0.41c-0.376,0 -0.702,0.136 -0.98,0.41a1.335,1.335 0 0 0 -0.415,0.984c0,0.376 0.139,0.7 0.416,0.974c0.277,0.274 0.603,0.41 0.979,0.41l0,0.001zm8.584,-0.01c1.45,0 2.623,-0.444 3.517,-1.33c0.893,-0.888 1.34,-2.053 1.34,-3.497c0,-1.438 -0.438,-2.544 -1.316,-3.32c-0.877,-0.774 -2.199,-1.161 -3.966,-1.161l-1.544,0l0.307,-2.918l5.876,0l0,-2.058l-7.863,0l-0.732,6.914l3.63,0c2.21,0 3.314,0.874 3.314,2.622c0,0.791 -0.232,1.43 -0.697,1.914c-0.465,0.485 -1.103,0.727 -1.915,0.727c-0.705,0 -1.307,-0.205 -1.805,-0.613c-0.498,-0.41 -0.747,-1.023 -0.747,-1.84c0,-0.165 0.023,-0.403 0.07,-0.712l-2.286,0.138c-0.033,0.284 -0.05,0.521 -0.05,0.712c0,0.917 0.228,1.716 0.683,2.399a4.204,4.204 0 0 0 1.771,1.523c0.726,0.333 1.53,0.5 2.414,0.5l-0.001,0zm9.207,-8.29a2.96,2.96 0 0 0 2.186,-0.91c0.6,-0.613 0.9,-1.348 0.9,-2.205c0,-0.851 -0.3,-1.58 -0.9,-2.187a2.96,2.96 0 0 0 -2.186,-0.91c-0.85,0 -1.58,0.304 -2.186,0.91a2.981,2.981 0 0 0 -0.91,2.187c0,0.863 0.302,1.599 0.905,2.205c0.603,0.607 1.334,0.91 2.191,0.91zm1.088,8.112l7.46,-14.136l-1.98,0l-7.438,14.136l1.958,0zm-1.088,-9.684c-0.422,0 -0.785,-0.15 -1.088,-0.45a1.48,1.48 0 0 1 -0.455,-1.093c0,-0.43 0.152,-0.79 0.455,-1.084a1.51,1.51 0 0 1 1.088,-0.44c0.429,0 0.792,0.149 1.088,0.445c0.297,0.297 0.445,0.656 0.445,1.079c0,0.428 -0.146,0.793 -0.44,1.093c-0.293,0.3 -0.658,0.45 -1.093,0.45zm7.785,9.842c0.851,0 1.575,-0.303 2.172,-0.91a3.006,3.006 0 0 0 0.895,-2.186c0,-0.857 -0.3,-1.588 -0.9,-2.191a2.945,2.945 0 0 0 -2.167,-0.905c-0.857,0 -1.589,0.301 -2.196,0.905a2.976,2.976 0 0 0 -0.91,2.191c0,0.857 0.302,1.588 0.905,2.191c0.604,0.603 1.338,0.905 2.201,0.905zm0,-1.563c-0.435,0 -0.8,-0.15 -1.098,-0.45a1.485,1.485 0 0 1 -0.445,-1.083c0,-0.435 0.149,-0.801 0.445,-1.098a1.492,1.492 0 0 1 1.098,-0.445c0.416,0 0.777,0.151 1.084,0.455c0.306,0.303 0.46,0.666 0.46,1.088c0,0.422 -0.152,0.783 -0.455,1.083c-0.304,0.3 -0.666,0.45 -1.089,0.45z" id="svg_30"/>
    </g>
    <g id="svg_31">
     <rect width="106.026" height="78.333" fill="#FAFAFA" rx="4" y="391.46001" x="278.76601" id="svg_32"/>
     <path fill="#1E272E" fill-rule="nonzero" d="m300.87001,453.09901c0.936,0 1.777,-0.168 2.522,-0.505a4.186,4.186 0 0 0 1.776,-1.503c0.439,-0.66 0.658,-1.421 0.658,-2.285c0,-0.85 -0.218,-1.593 -0.653,-2.226a4.118,4.118 0 0 0 -1.77,-1.444c0.527,-0.31 0.942,-0.714 1.246,-1.212a3.14,3.14 0 0 0 0.455,-1.667c0,-1.068 -0.4,-1.943 -1.202,-2.626c-0.801,-0.682 -1.812,-1.024 -3.032,-1.024c-1.24,0 -2.262,0.34 -3.067,1.02c-0.804,0.678 -1.207,1.555 -1.207,2.63c0,0.614 0.155,1.17 0.465,1.667c0.31,0.498 0.736,0.902 1.276,1.212c-0.758,0.323 -1.353,0.801 -1.785,1.434c-0.432,0.633 -0.648,1.379 -0.648,2.236c0,0.864 0.22,1.625 0.658,2.285a4.147,4.147 0 0 0 1.78,1.498c0.749,0.34 1.591,0.51 2.528,0.51zm0,-8.665c-0.607,0 -1.118,-0.197 -1.533,-0.589a1.926,1.926 0 0 1 -0.624,-1.459c0,-0.567 0.208,-1.044 0.624,-1.43c0.415,-0.385 0.926,-0.578 1.533,-0.578c0.6,0 1.108,0.193 1.523,0.579c0.416,0.385 0.624,0.862 0.624,1.429c0,0.574 -0.21,1.058 -0.629,1.454a2.131,2.131 0 0 1 -1.518,0.594zm0,6.607c-0.772,0 -1.411,-0.227 -1.92,-0.682c-0.507,-0.455 -0.761,-1.062 -0.761,-1.82c0,-0.745 0.254,-1.342 0.762,-1.79c0.508,-0.45 1.147,-0.673 1.919,-0.673c0.758,0 1.391,0.224 1.9,0.672c0.507,0.449 0.761,1.046 0.761,1.79c0,0.753 -0.254,1.358 -0.762,1.816c-0.508,0.458 -1.14,0.687 -1.9,0.687l0.001,0zm11.076,2.059c0.936,0 1.777,-0.168 2.522,-0.505a4.186,4.186 0 0 0 1.776,-1.503c0.439,-0.66 0.658,-1.421 0.658,-2.285c0,-0.85 -0.218,-1.593 -0.653,-2.226a4.118,4.118 0 0 0 -1.77,-1.444c0.527,-0.31 0.942,-0.714 1.246,-1.212a3.14,3.14 0 0 0 0.455,-1.667c0,-1.068 -0.4,-1.943 -1.202,-2.626c-0.801,-0.682 -1.812,-1.024 -3.032,-1.024c-1.24,0 -2.262,0.34 -3.067,1.02c-0.804,0.678 -1.207,1.555 -1.207,2.63c0,0.614 0.155,1.17 0.465,1.667c0.31,0.498 0.736,0.902 1.276,1.212c-0.758,0.323 -1.353,0.801 -1.785,1.434c-0.432,0.633 -0.648,1.379 -0.648,2.236c0,0.864 0.22,1.625 0.658,2.285a4.147,4.147 0 0 0 1.78,1.498c0.749,0.34 1.591,0.51 2.528,0.51zm0,-8.665c-0.607,0 -1.118,-0.197 -1.534,-0.589a1.926,1.926 0 0 1 -0.623,-1.459c0,-0.567 0.208,-1.044 0.623,-1.43c0.416,-0.385 0.927,-0.578 1.534,-0.578c0.6,0 1.108,0.193 1.523,0.579c0.416,0.385 0.623,0.862 0.623,1.429c0,0.574 -0.209,1.058 -0.628,1.454a2.131,2.131 0 0 1 -1.518,0.594zm0,6.607c-0.772,0 -1.412,-0.227 -1.92,-0.682c-0.507,-0.455 -0.761,-1.062 -0.761,-1.82c0,-0.745 0.254,-1.342 0.762,-1.79c0.507,-0.45 1.147,-0.673 1.919,-0.673c0.758,0 1.391,0.224 1.9,0.672c0.507,0.449 0.76,1.046 0.76,1.79c0,0.753 -0.253,1.358 -0.76,1.816c-0.509,0.458 -1.142,0.687 -1.9,0.687zm8.435,2.068c0.383,0 0.711,-0.135 0.985,-0.406c0.273,-0.27 0.41,-0.597 0.41,-0.98c0,-0.382 -0.137,-0.71 -0.41,-0.983a1.343,1.343 0 0 0 -0.985,-0.41c-0.375,0 -0.702,0.136 -0.979,0.41a1.335,1.335 0 0 0 -0.415,0.984c0,0.376 0.138,0.7 0.415,0.974c0.277,0.274 0.604,0.41 0.98,0.41l-0.001,0.001zm13.313,-0.198l0,-2.058l-6.51,0l4.146,-4.293c0.666,-0.692 1.154,-1.342 1.464,-1.948c0.31,-0.607 0.465,-1.27 0.465,-1.989c0,-1.253 -0.419,-2.238 -1.257,-2.957c-0.837,-0.72 -1.915,-1.079 -3.234,-1.079c-1.405,0 -2.52,0.393 -3.344,1.178c-0.824,0.784 -1.237,1.909 -1.237,3.373l0,0.791l2.266,0.218l0,-1.039c0,-0.917 0.207,-1.584 0.623,-2.003c0.415,-0.419 0.983,-0.628 1.701,-0.628c0.686,0 1.23,0.19 1.633,0.569c0.402,0.379 0.603,0.908 0.603,1.587c0,0.877 -0.471,1.8 -1.414,2.77l-5.64,5.787l0,1.721l9.735,0zm9.702,0l0,-2.76l1.939,0l0,-2.048l-1.94,0l0,-9.298l-3.469,0l-5.431,9.289l0,2.057l6.628,0l0,2.76l2.275,0l-0.002,0zm-2.275,-4.808l-4.412,0l4.412,-7.834l0,7.834zm8.129,-3.294a2.96,2.96 0 0 0 2.186,-0.91c0.6,-0.613 0.9,-1.348 0.9,-2.205c0,-0.851 -0.3,-1.58 -0.9,-2.187a2.96,2.96 0 0 0 -2.186,-0.91c-0.851,0 -1.58,0.304 -2.187,0.91a2.981,2.981 0 0 0 -0.91,2.187c0,0.863 0.302,1.599 0.905,2.205c0.604,0.607 1.334,0.91 2.192,0.91zm1.088,8.112l7.459,-14.136l-1.979,0l-7.439,14.136l1.959,0zm-1.088,-9.684c-0.422,0 -0.785,-0.15 -1.089,-0.45a1.48,1.48 0 0 1 -0.455,-1.093c0,-0.43 0.152,-0.79 0.455,-1.084a1.51,1.51 0 0 1 1.089,-0.44c0.428,0 0.791,0.149 1.088,0.445c0.297,0.297 0.445,0.656 0.445,1.079c0,0.428 -0.147,0.793 -0.44,1.093c-0.294,0.3 -0.658,0.45 -1.093,0.45zm7.785,9.842c0.85,0 1.574,-0.303 2.171,-0.91a3.006,3.006 0 0 0 0.896,-2.186c0,-0.857 -0.3,-1.588 -0.9,-2.191a2.945,2.945 0 0 0 -2.167,-0.905c-0.857,0 -1.59,0.301 -2.196,0.905a2.976,2.976 0 0 0 -0.91,2.191c0,0.857 0.301,1.588 0.905,2.191c0.603,0.603 1.337,0.905 2.2,0.905l0.001,0zm0,-1.563c-0.435,0 -0.801,-0.15 -1.098,-0.45a1.485,1.485 0 0 1 -0.445,-1.083c0,-0.435 0.148,-0.801 0.445,-1.098a1.492,1.492 0 0 1 1.098,-0.445c0.415,0 0.776,0.151 1.083,0.455c0.307,0.303 0.46,0.666 0.46,1.088c0,0.422 -0.152,0.783 -0.455,1.083c-0.303,0.3 -0.666,0.45 -1.088,0.45z" id="svg_33"/>
    </g>
    <g id="svg_34">
     <rect width="227.584" height="108.046" fill="#FAFAFA" rx="4" y="267.207" x="157.208" id="svg_35"/>
     <path fill="#343A40" fill-rule="nonzero" d="m185.994,352.019c1.998,0 3.791,-0.359 5.381,-1.076c1.59,-0.732 2.853,-1.801 3.788,-3.208c0.936,-1.407 1.404,-3.032 1.404,-4.875c0,-1.815 -0.465,-3.397 -1.393,-4.748c-0.929,-1.35 -2.188,-2.377 -3.778,-3.08c1.126,-0.662 2.012,-1.524 2.66,-2.586c0.647,-1.062 0.97,-2.247 0.97,-3.556c0,-2.279 -0.855,-4.146 -2.564,-5.602c-1.71,-1.457 -3.865,-2.185 -6.468,-2.185c-2.645,0 -4.826,0.725 -6.542,2.174c-1.717,1.449 -2.575,3.32 -2.575,5.613c0,1.309 0.33,2.494 0.992,3.556c0.661,1.062 1.568,1.924 2.722,2.585c-1.618,0.69 -2.888,1.71 -3.81,3.06c-0.92,1.35 -1.381,2.94 -1.381,4.77c0,1.842 0.467,3.467 1.403,4.874c0.936,1.407 2.202,2.473 3.799,3.197c1.597,0.725 3.394,1.087 5.392,1.087zm0,-18.486c-1.295,0 -2.385,-0.419 -3.271,-1.256c-0.887,-0.837 -1.33,-1.874 -1.33,-3.112c0,-1.21 0.443,-2.227 1.33,-3.05c0.886,-0.823 1.976,-1.234 3.27,-1.234c1.281,0 2.364,0.411 3.25,1.234c0.887,0.823 1.33,1.84 1.33,3.05c0,1.224 -0.446,2.258 -1.34,3.102c-0.893,0.844 -1.973,1.266 -3.24,1.266l0.001,0zm0,14.097c-1.646,0 -3.011,-0.486 -4.094,-1.457c-1.084,-0.97 -1.625,-2.265 -1.625,-3.882c0,-1.59 0.541,-2.863 1.625,-3.82c1.083,-0.957 2.448,-1.435 4.094,-1.435c1.618,0 2.968,0.478 4.052,1.435c1.083,0.957 1.625,2.23 1.625,3.82c0,1.603 -0.542,2.894 -1.625,3.872c-1.084,0.978 -2.434,1.467 -4.052,1.467zm21.737,3.988l9.729,-12.873c1.772,-2.391 2.659,-4.818 2.659,-7.28c0,-1.97 -0.479,-3.746 -1.435,-5.329a9.904,9.904 0 0 0 -3.894,-3.682c-1.64,-0.872 -3.458,-1.308 -5.455,-1.308c-1.956,0 -3.753,0.432 -5.392,1.297c-1.64,0.866 -2.948,2.104 -3.926,3.714c-0.978,1.611 -1.46,3.423 -1.445,5.434c0.014,1.97 0.482,3.718 1.403,5.244c0.922,1.527 2.107,2.684 3.556,3.472a9.656,9.656 0 0 0 4.685,1.182c0.661,0 1.294,-0.064 1.9,-0.19l-8.02,10.319l5.635,0zm1.73,-13.76c-1.8,0 -3.274,-0.565 -4.421,-1.698c-1.147,-1.132 -1.727,-2.62 -1.741,-4.463c-0.014,-1.815 0.563,-3.289 1.73,-4.421c1.168,-1.133 2.645,-1.699 4.432,-1.699c1.815,0 3.278,0.549 4.39,1.646c1.111,1.098 1.667,2.575 1.667,4.432c0,1.758 -0.566,3.232 -1.699,4.42c-1.132,1.19 -2.585,1.784 -4.358,1.784l0,-0.001zm17.664,14.182c0.816,0 1.516,-0.288 2.1,-0.865a2.83,2.83 0 0 0 0.876,-2.09c0,-0.815 -0.292,-1.515 -0.876,-2.1a2.864,2.864 0 0 0 -2.1,-0.875c-0.802,0 -1.498,0.292 -2.09,0.876c-0.59,0.584 -0.885,1.284 -0.885,2.1c0,0.801 0.295,1.494 0.886,2.078c0.59,0.584 1.287,0.876 2.09,0.876l-0.001,0zm14.224,-0.422l14.16,-26.23l0,-3.863l-20.912,0l0,4.369l15.448,0l-14.225,25.723l5.53,0l-0.001,0.001zm34.378,0l0,-5.888l4.137,0l0,-4.368l-4.137,0l0,-19.837l-7.407,0l-11.586,19.816l0,4.39l14.14,0l0,5.887l4.853,0zm-4.853,-10.256l-9.413,0l9.413,-16.713l0,16.713zm17.094,-7.027c1.829,0 3.383,-0.647 4.664,-1.942c1.28,-1.308 1.92,-2.877 1.92,-4.706c0,-1.814 -0.64,-3.369 -1.92,-4.663c-1.28,-1.295 -2.835,-1.942 -4.664,-1.942c-1.815,0 -3.37,0.647 -4.664,1.942c-1.295,1.294 -1.942,2.849 -1.942,4.663c0,1.843 0.644,3.412 1.931,4.706c1.288,1.295 2.846,1.942 4.675,1.942zm2.321,17.304l15.913,-30.156l-4.221,0l-15.87,30.156l4.178,0zm-2.321,-20.66c-0.9,0 -1.675,-0.32 -2.322,-0.96a3.157,3.157 0 0 1 -0.97,-2.332c0,-0.914 0.323,-1.684 0.97,-2.31a3.222,3.222 0 0 1 2.322,-0.94c0.914,0 1.688,0.317 2.321,0.95c0.633,0.633 0.95,1.4 0.95,2.3c0,0.915 -0.313,1.692 -0.94,2.332c-0.625,0.64 -1.403,0.96 -2.331,0.96zm16.609,20.998c1.814,0 3.359,-0.647 4.632,-1.942c1.273,-1.294 1.91,-2.849 1.91,-4.663c0,-1.83 -0.64,-3.387 -1.92,-4.675c-1.281,-1.287 -2.822,-1.93 -4.622,-1.93c-1.83,0 -3.391,0.643 -4.686,1.93c-1.294,1.288 -1.941,2.846 -1.941,4.675c0,1.828 0.644,3.386 1.93,4.674c1.288,1.287 2.853,1.93 4.697,1.93l0,0.001zm0,-3.335c-0.93,0 -1.71,-0.32 -2.343,-0.96a3.168,3.168 0 0 1 -0.95,-2.31c0,-0.929 0.317,-1.71 0.95,-2.343s1.414,-0.95 2.343,-0.95c0.886,0 1.656,0.324 2.31,0.971c0.655,0.647 0.982,1.421 0.982,2.322c0,0.9 -0.324,1.67 -0.971,2.31c-0.647,0.64 -1.421,0.96 -2.321,0.96z" id="svg_36"/>
    </g>
   </g>
  </g>
 </g>
</svg>